# xmcd
#
# Track frame offsets: 
#        150
#        41083
#        58007
#        70852
#        88942
#        113708
#        131029
#        153592
#        166718
#
# Disc length: 2419 seconds
#
# Revision: 0
# Processed by: cddbd v1.5.2PL0 Copyright (c) Steve Scherf et al.
# Submitted via: ExactAudioCopy v0.95a5
#
DISCID=78097109
DTITLE=Jan Kyks Skrzek and Bezdomne Psy - Kyksówka Blues
DYEAR=2004
DGENRE=Blues
TTITLE0=Rewelacja bluesa
TTITLE1=Czemu serce me tak bije
TTITLE2=I znikn¹æ tak
TTITLE3=Blues o dwóch garniturach
TTITLE4=Swing Jasia
TTITLE5=Song o stryju Józefie
TTITLE6=Piêkne etykietki
TTITLE7=Poleczka
TTITLE8=Country blues
EXTD=
EXTT0=
EXTT1=
EXTT2=
EXTT3=
EXTT4=
EXTT5=
EXTT6=
EXTT7=
EXTT8=
PLAYORDER=
